<svg width="800" height="800" viewBox="0 0 800 800" fill="none" xmlns="http://www.w3.org/2000/svg">
<path d="M736.304 194.664L667.344 125.688C664.92 123.272 661.648 121.904 658.216 121.904C654.792 121.904 651.512 123.272 649.088 125.688L399.896 374.88L351.336 326.336C346.296 321.296 338.128 321.296 333.08 326.336L264.104 395.312C261.68 397.728 260.32 401.016 260.32 404.44C260.32 407.856 261.68 411.144 264.104 413.568L390.36 539.792C392.776 542.208 396.056 543.576 399.488 543.576C399.64 543.576 399.784 543.496 399.936 543.496C400.064 543.496 400.2 543.568 400.336 543.568C403.648 543.568 406.936 542.304 409.464 539.784L736.304 212.928C741.344 207.872 741.344 199.704 736.304 194.664Z" fill="#A7FF5F"/>
<path d="M576.176 429V598.272H223.824V245.92H472.304L552.136 166.096H185.544V166.152C185.36 166.152 185.192 166.096 185 166.096C162.696 166.096 144.64 183.928 144.096 206.096H144V638.096H144.104C144.64 659.92 162.176 677.456 184 677.992V678.096H185H614.992H616V677.992C637.832 677.456 655.36 659.92 655.896 638.096H656V349.176L576.176 429Z" fill="#62FF5A"/>
</svg>
