<svg width="800" height="800" viewBox="0 0 800 800" fill="none" xmlns="http://www.w3.org/2000/svg">
<path d="M100 100L700 700M600 200L586.667 400M574.993 575.09L573.303 600.43C570.967 635.5 569.797 653.037 562.223 666.333C555.553 678.04 545.493 687.45 533.37 693.327C519.6 700 502.023 700 466.873 700H333.126C297.976 700 280.401 700 266.63 693.327C254.506 687.45 244.446 678.04 237.777 666.333C230.202 653.037 229.033 635.5 226.695 600.43L200 200H133.333M533.333 200L515.197 145.585C506.123 118.362 480.647 100 451.95 100H348.053C331.414 100 315.859 106.173 303.955 116.667M387.11 200H666.667M466.667 466.667V566.667M333.333 333.333V566.667" stroke="#FF3D2C" stroke-opacity="0.82" stroke-width="66.6667" stroke-linecap="round" stroke-linejoin="round"/>
</svg>
